<?xml version="1.0" ?><svg height="64" preserveAspectRatio="xMidYMid" viewBox="0 0 49 64" width="49" xmlns="http://www.w3.org/2000/svg" xmlns:xlink="http://www.w3.org/1999/xlink"><defs><style>
      .cls-1 {
        fill: #07ced5;
      }

      .cls-1, .cls-2, .cls-3 {
        fill-rule: evenodd;
      }

      .cls-2 {
        fill: #fff;
      }

      .cls-3 {
        fill: #50f8ff;
      }
    </style></defs><g><path class="cls-1" d="M49.000,16.842 L49.000,58.947 C49.000,61.738 46.730,64.000 43.931,64.000 L5.069,64.000 C2.269,64.000 -0.000,61.738 -0.000,58.947 L-0.000,5.053 C-0.000,2.262 2.269,-0.000 5.069,-0.000 L32.103,-0.000 L49.000,16.842 Z"/><path class="cls-2" d="M35.567,38.014 C35.282,37.878 34.916,37.811 34.469,37.811 C33.670,37.811 33.101,38.055 32.763,38.543 C32.424,39.032 32.254,39.789 32.254,40.814 C32.254,41.839 32.428,42.588 32.776,43.062 C33.124,43.535 33.719,43.772 34.560,43.772 C34.923,43.772 35.255,43.721 35.558,43.618 C35.860,43.516 36.148,43.289 36.420,42.940 L38.190,44.179 C37.827,44.716 37.349,45.123 36.756,45.400 C36.163,45.677 35.413,45.816 34.505,45.816 C32.968,45.816 31.807,45.399 31.020,44.563 C30.234,43.728 29.840,42.490 29.840,40.850 C29.840,39.252 30.222,38.007 30.984,37.114 C31.746,36.222 32.890,35.775 34.414,35.775 C35.231,35.775 35.959,35.908 36.597,36.173 C37.235,36.439 37.721,36.849 38.054,37.403 L36.311,38.643 C36.099,38.359 35.851,38.150 35.567,38.014 ZM26.346,44.550 C25.420,45.394 24.428,45.816 23.369,45.816 C22.316,45.816 21.521,45.540 20.982,44.989 C20.444,44.437 20.174,43.730 20.174,42.867 C20.174,42.192 20.312,41.634 20.587,41.194 C20.863,40.754 21.271,40.408 21.813,40.158 C22.354,39.908 23.133,39.731 24.149,39.629 L26.155,39.439 L26.155,39.014 C26.155,38.483 25.995,38.120 25.674,37.924 C25.353,37.728 24.885,37.630 24.267,37.630 C23.759,37.630 23.322,37.714 22.956,37.883 C22.590,38.052 22.319,38.293 22.144,38.607 L20.320,37.440 C20.640,36.903 21.142,36.491 21.826,36.205 C22.510,35.918 23.336,35.775 24.304,35.775 C25.786,35.775 26.855,36.033 27.512,36.549 C28.168,37.064 28.497,37.910 28.497,39.086 L28.497,45.536 L26.346,45.536 L26.346,44.550 ZM26.155,41.130 L24.966,41.239 C24.125,41.311 23.519,41.471 23.147,41.718 C22.775,41.966 22.589,42.337 22.589,42.831 C22.589,43.265 22.709,43.562 22.952,43.722 C23.193,43.882 23.514,43.962 23.913,43.962 C24.198,43.962 24.544,43.873 24.953,43.695 C25.361,43.517 25.762,43.265 26.155,42.940 L26.155,41.130 ZM16.752,44.550 C15.827,45.394 14.834,45.816 13.776,45.816 C12.723,45.816 11.927,45.540 11.389,44.989 C10.850,44.437 10.581,43.730 10.581,42.867 C10.581,42.192 10.719,41.634 10.994,41.194 C11.269,40.754 11.678,40.408 12.219,40.158 C12.761,39.908 13.540,39.731 14.556,39.629 L16.562,39.439 L16.562,39.014 C16.562,38.483 16.401,38.120 16.081,37.924 C15.760,37.728 15.291,37.630 14.674,37.630 C14.166,37.630 13.729,37.714 13.363,37.883 C12.997,38.052 12.726,38.293 12.551,38.607 L10.726,37.440 C11.047,36.903 11.549,36.491 12.233,36.205 C12.916,35.918 13.742,35.775 14.710,35.775 C16.193,35.775 17.262,36.033 17.919,36.549 C18.575,37.064 18.903,37.910 18.903,39.086 L18.903,45.536 L16.752,45.536 L16.752,44.550 ZM16.562,41.130 L15.373,41.239 C14.532,41.311 13.925,41.471 13.553,41.718 C13.181,41.966 12.995,42.337 12.995,42.831 C12.995,43.265 13.116,43.562 13.358,43.722 C13.600,43.882 13.921,43.962 14.320,43.962 C14.604,43.962 14.951,43.873 15.359,43.695 C15.768,43.517 16.168,43.265 16.562,42.940 L16.562,41.130 Z"/><path class="cls-3" d="M49.000,15.899 L49.000,17.995 L35.187,17.995 C32.327,17.995 31.008,15.675 31.008,12.814 L31.008,-0.000 L33.100,-0.000 L49.000,15.899 Z"/></g></svg>