<svg xmlns="http://www.w3.org/2000/svg" width="14" height="16" viewBox="0 0 14 16">
  <defs>
    <style>
      .cls-1 {
        fill: #cfcfcf;
        fill-rule: evenodd;
      }
    </style>
  </defs>
  <path id="reload" class="cls-1" d="M441.966,1571.67A7,7,0,1,1,433,1564.3v-0.8a1.5,1.5,0,0,1,1.5-1.5,1.566,1.566,0,0,1,.217.04l4.132,2.83a1.4,1.4,0,0,1,0,1.26l-4.132,2.83a1.566,1.566,0,0,1-.217.04,1.5,1.5,0,0,1-1.49-1.45A3.993,3.993,0,1,0,439,1571a1.626,1.626,0,0,1,3,0C442,1571.34,441.961,1571.71,441.966,1571.67Z" transform="translate(-428 -1562)"/>
</svg>
